<svg width="16" height="16" viewBox="0 0 16 16" fill="none" xmlns="http://www.w3.org/2000/svg">
<g clip-path="url(#clip0)">
<path d="M16 8.87907C16 8.34982 15.7104 7.87298 15.2442 7.6346C14.7688 7.39148 14.1532 7.2682 13.4146 7.2682H5.38572C5.32791 6.9797 5.19981 6.71757 5.00766 6.50398L3.86906 5.23826C3.58731 4.92504 3.18244 4.73485 2.72906 4.70279L2.52453 4.68832C2.41981 4.68079 2.31341 4.69557 2.21128 4.72982V4.06073C2.21128 3.82635 2.11256 3.6147 1.95475 3.46473C2.11478 3.27292 2.21128 3.02629 2.21128 2.75754C2.21128 2.14789 1.71528 1.65192 1.10566 1.65192C0.496031 1.65192 0 2.14792 0 2.75757C0 3.02635 0.0965 3.27295 0.256531 3.46476C0.0987187 3.61476 0 3.82639 0 4.06076V14.0355C0 14.208 0.139906 14.348 0.3125 14.348H1.39109C1.55228 14.348 1.68703 14.2254 1.70222 14.0649C1.73944 13.6714 1.94753 12.5906 2.46309 12.1059H3.29988C3.47247 12.1059 3.61238 11.966 3.61238 11.7934C3.61238 11.6209 3.47247 11.4809 3.29988 11.4809L0.624969 11.4809V8.72979L4.79609 8.7297V9.54404C4.79609 10.0259 5.18806 10.4179 5.66991 10.4179H5.66997H15.1262C15.2101 10.4179 15.2946 10.4057 15.375 10.3818V11.4809H13.6529C13.6527 11.4809 13.6524 11.481 13.6521 11.481H6.04956C5.87697 11.481 5.73706 11.6209 5.73706 11.7935C5.73706 11.966 5.87697 12.106 6.04956 12.106H13.5369C14.0504 12.5893 14.2599 13.6711 14.2978 14.0649C14.313 14.2254 14.4477 14.348 14.6089 14.348H15.6875C15.8601 14.348 16 14.2081 16 14.0355V8.87907ZM2.21203 5.7516C2.21669 5.61845 2.19844 5.48085 2.30816 5.38295C2.41853 5.28445 2.55094 5.31673 2.68494 5.32623C2.98019 5.34714 3.22897 5.46123 3.40438 5.65626L4.54297 6.92201C4.72753 7.12714 4.81606 7.41307 4.79222 7.72704C4.78306 7.84792 4.78525 7.95507 4.68337 8.04035C4.59028 8.11829 4.48925 8.10376 4.37719 8.10042C4.06244 8.09098 3.78747 7.97279 3.60291 7.76764L2.46431 6.50192C2.28016 6.29714 2.20253 6.02348 2.21203 5.7516ZM0.625 8.10476V4.06076C0.625 3.95182 0.713625 3.8632 0.822563 3.8632H1.38866C1.49759 3.8632 1.58622 3.95182 1.58622 4.06076V8.10473H0.625V8.10476ZM2.21125 7.15504L3.06556 8.10476H2.21125V7.15504ZM1.10563 2.27695C1.37063 2.27695 1.58625 2.49254 1.58625 2.75757C1.58625 3.0226 1.37066 3.2382 1.10563 3.2382C0.840594 3.2382 0.625 3.0226 0.625 2.75757C0.625 2.49254 0.840594 2.27695 1.10563 2.27695ZM1.11881 13.723H0.625V12.106H1.67288C1.33469 12.6596 1.18175 13.3444 1.11881 13.723ZM5.66994 9.79288C5.53278 9.79288 5.42119 9.68129 5.42119 9.54414L5.42106 7.8932H13.4146C14.0533 7.8932 14.5732 7.99342 14.9596 8.19104C15.2158 8.32204 15.375 8.58567 15.375 8.87907V9.54295C15.375 9.54335 15.3749 9.54376 15.3749 9.54417C15.3749 9.68132 15.2633 9.79292 15.1262 9.79292H5.66994V9.79288ZM14.8812 13.723C14.8182 13.3444 14.6653 12.6596 14.3272 12.106H15.375V13.723H14.8812Z" fill="#1A1919"/>
<path d="M4.9634 11.674C4.89874 11.5164 4.71215 11.4402 4.55527 11.505C4.39784 11.57 4.32105 11.7558 4.38621 11.9131C4.45134 12.0704 4.63706 12.1473 4.79434 12.0822C4.95131 12.0171 5.02874 11.831 4.9634 11.674Z" fill="#1A1919"/>
</g>
<defs>
<clipPath id="clip0">
<rect width="16" height="16" fill="white"/>
</clipPath>
</defs>
</svg>
