<svg width="16" height="16" viewBox="0 0 16 16" fill="none" xmlns="http://www.w3.org/2000/svg">
<g clip-path="url(#clip0)">
<path d="M15.2752 1.76745C15.4208 1.66447 15.4553 1.46287 15.3523 1.31726C15.2492 1.17164 15.0477 1.13708 14.9021 1.24017L14.0954 1.81089C13.9498 1.91388 13.9153 2.11548 14.0183 2.26109C14.0813 2.35002 14.181 2.39756 14.2822 2.39756C14.3467 2.39756 14.4119 2.37828 14.4685 2.33813L15.2752 1.76745Z" fill="black"/>
<path d="M13.1382 1.5819C13.1756 1.596 13.214 1.60268 13.2518 1.60268C13.3825 1.60268 13.5055 1.52279 13.5541 1.39322L13.9019 0.468276C13.9647 0.301343 13.8802 0.115084 13.7132 0.0523158C13.5463 -0.0105061 13.36 0.0740639 13.2972 0.240997L12.9494 1.16594C12.8867 1.33287 12.9712 1.51913 13.1382 1.5819Z" fill="black"/>
<path d="M15.676 2.99353C15.6738 2.99353 15.6716 2.99353 15.6693 2.99353L14.6814 3.00182C14.5031 3.00543 14.3615 3.14205 14.3651 3.3204C14.3686 3.49648 14.5125 3.63951 14.6879 3.63951C14.6901 3.63951 14.6923 3.63951 14.6946 3.63951L15.6824 3.62266C15.8608 3.619 16.0024 3.4756 15.9988 3.29725C15.9953 3.12117 15.8514 2.99353 15.676 2.99353Z" fill="black"/>
<path d="M13.6836 7.92149C13.5182 7.79051 13.3224 7.70137 13.1153 7.65949C13.129 7.63472 13.1418 7.60953 13.1538 7.58396L13.2834 7.45433C13.7827 6.95504 13.8351 6.16915 13.4053 5.62614C13.2024 5.36985 12.9208 5.19952 12.608 5.13595C12.6303 5.09482 12.6501 5.05278 12.6681 5.01009C13.0081 4.51758 13.0026 3.85566 12.626 3.3799C12.423 3.12344 12.1413 2.95258 11.8283 2.88911C12.0867 2.41399 12.0537 1.82184 11.7085 1.38585C11.4476 1.05613 11.0567 0.866965 10.636 0.866965C10.2992 0.866965 9.98144 0.987333 9.73209 1.20772C9.69436 0.993524 9.60489 0.786648 9.46229 0.606472C9.20126 0.276751 8.81038 0.0876393 8.38974 0.0875854C8.02422 0.0875854 7.6811 0.229433 7.42362 0.486911L4.14848 3.76205L4.13599 3.32493C4.13023 2.58044 3.52274 1.9765 2.77689 1.9765C2.04456 1.9765 1.44568 2.55869 1.41877 3.28451L0.764922 8.03819L0.227517 8.66286C-0.0945594 9.03737 -0.0729728 9.6039 0.276774 9.95278L1.07548 10.7501C0.829251 11.1206 0.872371 11.6258 1.19423 11.9468L4.94455 15.6912C5.12375 15.87 5.36164 15.9683 5.61454 15.9683C5.82217 15.9683 6.02732 15.8986 6.1921 15.7721L6.97504 15.1709C7.7282 14.993 8.55856 14.5888 9.44452 13.9689C10.2181 13.4274 11.0574 12.706 11.9389 11.8244L13.8032 9.96016C14.0781 9.68524 14.2228 9.30405 14.2002 8.91436C14.1776 8.52532 13.9893 8.16346 13.6836 7.92149ZM10.1266 1.723C10.2668 1.58293 10.4513 1.5129 10.636 1.5129C10.8467 1.5129 11.0575 1.60414 11.202 1.78668C11.4311 2.07614 11.391 2.49619 11.13 2.75717L10.7974 3.08963C10.7462 3.12382 10.6963 3.16037 10.6496 3.20177C10.6118 2.98751 10.5223 2.78064 10.3797 2.60052C10.2044 2.37905 9.97036 2.22138 9.70814 2.14149L10.1266 1.723ZM7.88038 0.943676C8.02045 0.803605 8.2051 0.733569 8.38974 0.733569C8.60055 0.733623 8.8113 0.824868 8.95578 1.00741C9.18489 1.29687 9.14473 1.71686 8.8837 1.97784L5.06599 5.75609L5.05345 5.31903C5.05016 4.8978 4.85427 4.52167 4.5498 4.27442L7.88038 0.943676ZM0.732946 9.49537C0.620868 9.38351 0.614031 9.20414 0.717281 9.0841L1.37839 8.31554C1.37871 8.31516 1.37898 8.31462 1.37904 8.31414L2.06378 3.33559C2.06378 2.94337 2.38467 2.62248 2.77689 2.62248C3.16911 2.62248 3.49006 2.94337 3.49006 3.33559L3.50863 3.98346C2.86329 4.07207 2.36083 4.61507 2.33617 5.2785L1.68238 10.0322L1.49219 10.2534L0.732946 9.49537ZM13.3464 9.50334L11.4822 11.3676C9.88998 12.9598 8.22566 14.2378 6.76364 14.5564C6.71923 14.5662 6.67745 14.5849 6.64138 14.6126L5.79864 15.2598C5.74406 15.3017 5.67919 15.3223 5.61459 15.3223C5.53691 15.3223 5.45956 15.2924 5.40099 15.234L1.65046 11.4894C1.53833 11.3776 1.53149 11.1982 1.63479 11.0781L2.29585 10.3096C2.29623 10.3092 2.29644 10.3087 2.29655 10.3082L2.98124 5.32969C2.98124 4.93747 3.30219 4.61652 3.69441 4.61652C4.08663 4.61652 4.40752 4.93747 4.40752 5.32969L4.44122 6.50452C4.44682 6.69972 4.6074 6.82681 4.77449 6.82681C4.85599 6.82681 4.93911 6.7965 5.00645 6.72922L8.79789 2.93777C8.93802 2.79765 9.12255 2.72767 9.30725 2.72767C9.51801 2.72767 9.72881 2.81891 9.8733 3.00146C10.1024 3.29091 10.0622 3.71096 9.80116 3.97194L7.18934 6.58376C7.05374 6.71942 7.05374 6.93921 7.18934 7.07476C7.25798 7.1434 7.34793 7.17774 7.43788 7.17774C7.52784 7.17774 7.61784 7.1434 7.68643 7.07476L11.0441 3.7171C11.1842 3.57698 11.3688 3.50699 11.5535 3.50699C11.7643 3.50705 11.9751 3.59829 12.1195 3.78084C12.3487 4.07024 12.3084 4.49029 12.0474 4.75127L8.70547 8.09321C8.56803 8.2307 8.56803 8.45345 8.70547 8.59094C8.77319 8.65866 8.8619 8.69252 8.95072 8.69252C9.03944 8.69252 9.12821 8.65866 9.19593 8.59094L11.8235 5.9634C11.9636 5.82328 12.1482 5.75329 12.3329 5.75329C12.5436 5.75329 12.7544 5.84454 12.8989 6.02714C13.128 6.31654 13.0878 6.73659 12.8268 6.99757L10.2241 9.60034C10.0835 9.7409 10.0835 9.96893 10.2241 10.1095L10.2283 10.1137C10.2932 10.1787 10.3784 10.2112 10.4635 10.2112C10.5487 10.2112 10.6338 10.1787 10.6988 10.1137L12.3123 8.50018C12.4577 8.35478 12.6524 8.27791 12.8464 8.27791C13.0007 8.27791 13.1546 8.32657 13.2828 8.42805C13.6252 8.69903 13.6464 9.20339 13.3464 9.50334Z" fill="black"/>
</g>
<defs>
<clipPath id="clip0">
<rect width="16" height="16" fill="white"/>
</clipPath>
</defs>
</svg>
