<svg width="24" height="24" viewBox="0 0 24 24" fill="none" xmlns="http://www.w3.org/2000/svg">
<path fill-rule="evenodd" clip-rule="evenodd" d="M13.6009 20.7272V12.766H16.3175L16.725 9.66243H13.6009V7.68126C13.6009 6.78299 13.8535 6.17083 15.165 6.17083L16.835 6.17015V3.39421C16.5462 3.35731 15.5549 3.27271 14.401 3.27271C11.9917 3.27271 10.3422 4.71878 10.3422 7.37389V9.66243H7.61739V12.766H10.3422V20.7272H13.6009Z" fill="#2C59CE"/>
<mask id="mask0" mask-type="alpha" maskUnits="userSpaceOnUse" x="7" y="3" width="10" height="18">
<path fill-rule="evenodd" clip-rule="evenodd" d="M13.6009 20.7272V12.766H16.3175L16.725 9.66243H13.6009V7.68126C13.6009 6.78299 13.8535 6.17083 15.165 6.17083L16.835 6.17015V3.39421C16.5462 3.35731 15.5549 3.27271 14.401 3.27271C11.9917 3.27271 10.3422 4.71878 10.3422 7.37389V9.66243H7.61739V12.766H10.3422V20.7272H13.6009Z" fill="white"/>
</mask>
<g mask="url(#mask0)">
</g>
</svg>
