<svg width="16" height="16" viewBox="0 0 16 16" fill="none" xmlns="http://www.w3.org/2000/svg">
<path d="M15.5 15.2501H14.75V0.500102C14.75 0.459546 14.7401 0.419607 14.7212 0.383724C14.7023 0.347842 14.6749 0.317092 14.6415 0.294122C14.6081 0.271153 14.5696 0.256652 14.5293 0.251869C14.489 0.247085 14.4482 0.252163 14.4103 0.266664L7.91031 2.76666C7.86314 2.78483 7.82257 2.81685 7.79396 2.85852C7.76534 2.90019 7.75001 2.94955 7.75 3.0001V6.82854L1.41031 9.26666C1.36314 9.28483 1.32257 9.31685 1.29396 9.35852C1.26534 9.40019 1.25001 9.44955 1.25 9.5001V15.2501H0.5C0.433696 15.2501 0.370107 15.2764 0.323223 15.3233C0.276339 15.3702 0.25 15.4338 0.25 15.5001C0.25 15.5664 0.276339 15.63 0.323223 15.6769C0.370107 15.7238 0.433696 15.7501 0.5 15.7501H15.5C15.5663 15.7501 15.6299 15.7238 15.6768 15.6769C15.7237 15.63 15.75 15.5664 15.75 15.5001C15.75 15.4338 15.7237 15.3702 15.6768 15.3233C15.6299 15.2764 15.5663 15.2501 15.5 15.2501ZM7.75 15.2501H1.75V9.67166L7.75 7.36416V15.2501ZM11 15.2501H10V12.7501H11V15.2501ZM12.5 15.2501H11.5V12.7501H12.5V15.2501ZM14.25 15.2501H13V12.5001C13 12.4338 12.9737 12.3702 12.9268 12.3233C12.8799 12.2764 12.8163 12.2501 12.75 12.2501H9.75C9.6837 12.2501 9.62011 12.2764 9.57322 12.3233C9.52634 12.3702 9.5 12.4338 9.5 12.5001V15.2501H8.25V3.17166L14.25 0.864164V15.2501Z" fill="#1A1919"/>
<path d="M6.5 10.2501H2.75C2.6837 10.2501 2.62011 10.2765 2.57322 10.3233C2.52634 10.3702 2.5 10.4338 2.5 10.5001V12.0001C2.5 12.0664 2.52634 12.13 2.57322 12.1769C2.62011 12.2238 2.6837 12.2501 2.75 12.2501H6.5C6.5663 12.2501 6.62989 12.2238 6.67678 12.1769C6.72366 12.13 6.75 12.0664 6.75 12.0001V10.5001C6.75 10.4338 6.72366 10.3702 6.67678 10.3233C6.62989 10.2765 6.5663 10.2501 6.5 10.2501ZM6.25 11.7501H3V10.7501H6.25V11.7501Z" fill="#1A1919"/>
<path d="M6.5 12.5001H5C4.9337 12.5001 4.87011 12.5265 4.82322 12.5733C4.77634 12.6202 4.75 12.6838 4.75 12.7501V14.2501C4.75 14.3164 4.77634 14.38 4.82322 14.4269C4.87011 14.4738 4.9337 14.5001 5 14.5001H6.5C6.5663 14.5001 6.62989 14.4738 6.67678 14.4269C6.72366 14.38 6.75 14.3164 6.75 14.2501V12.7501C6.75 12.6838 6.72366 12.6202 6.67678 12.5733C6.62989 12.5265 6.5663 12.5001 6.5 12.5001ZM6.25 14.0001H5.25V13.0001H6.25V14.0001Z" fill="#1A1919"/>
<path d="M4.25 12.5001H2.75C2.6837 12.5001 2.62011 12.5265 2.57322 12.5733C2.52634 12.6202 2.5 12.6838 2.5 12.7501V14.2501C2.5 14.3164 2.52634 14.38 2.57322 14.4269C2.62011 14.4738 2.6837 14.5001 2.75 14.5001H4.25C4.3163 14.5001 4.37989 14.4738 4.42678 14.4269C4.47366 14.38 4.5 14.3164 4.5 14.2501V12.7501C4.5 12.6838 4.47366 12.6202 4.42678 12.5733C4.37989 12.5265 4.3163 12.5001 4.25 12.5001ZM4 14.0001H3V13.0001H4V14.0001Z" fill="#1A1919"/>
<path d="M13.25 7.25012H11.75C11.6837 7.25012 11.6201 7.27646 11.5732 7.32335C11.5263 7.37023 11.5 7.43382 11.5 7.50012V9.00012C11.5 9.06643 11.5263 9.13001 11.5732 9.1769C11.6201 9.22378 11.6837 9.25012 11.75 9.25012H13.25C13.3163 9.25012 13.3799 9.22378 13.4268 9.1769C13.4737 9.13001 13.5 9.06643 13.5 9.00012V7.50012C13.5 7.43382 13.4737 7.37023 13.4268 7.32335C13.3799 7.27646 13.3163 7.25012 13.25 7.25012ZM13 8.75012H12V7.75012H13V8.75012Z" fill="#1A1919"/>
<path d="M10.75 7.25012H9.25C9.1837 7.25012 9.12011 7.27646 9.07322 7.32335C9.02634 7.37023 9 7.43382 9 7.50012V9.00012C9 9.06643 9.02634 9.13001 9.07322 9.1769C9.12011 9.22378 9.1837 9.25012 9.25 9.25012H10.75C10.8163 9.25012 10.8799 9.22378 10.9268 9.1769C10.9737 9.13001 11 9.06643 11 9.00012V7.50012C11 7.43382 10.9737 7.37023 10.9268 7.32335C10.8799 7.27646 10.8163 7.25012 10.75 7.25012ZM10.5 8.75012H9.5V7.75012H10.5V8.75012Z" fill="#1A1919"/>
<path d="M13.25 9.50012H11.75C11.6837 9.50012 11.6201 9.52646 11.5732 9.57335C11.5263 9.62023 11.5 9.68382 11.5 9.75012V11.2501C11.5 11.3164 11.5263 11.38 11.5732 11.4269C11.6201 11.4738 11.6837 11.5001 11.75 11.5001H13.25C13.3163 11.5001 13.3799 11.4738 13.4268 11.4269C13.4737 11.38 13.5 11.3164 13.5 11.2501V9.75012C13.5 9.68382 13.4737 9.62023 13.4268 9.57335C13.3799 9.52646 13.3163 9.50012 13.25 9.50012ZM13 11.0001H12V10.0001H13V11.0001Z" fill="#1A1919"/>
<path d="M10.75 9.50012H9.25C9.1837 9.50012 9.12011 9.52646 9.07322 9.57335C9.02634 9.62023 9 9.68382 9 9.75012V11.2501C9 11.3164 9.02634 11.38 9.07322 11.4269C9.12011 11.4738 9.1837 11.5001 9.25 11.5001H10.75C10.8163 11.5001 10.8799 11.4738 10.9268 11.4269C10.9737 11.38 11 11.3164 11 11.2501V9.75012C11 9.68382 10.9737 9.62023 10.9268 9.57335C10.8799 9.52646 10.8163 9.50012 10.75 9.50012ZM10.5 11.0001H9.5V10.0001H10.5V11.0001Z" fill="#1A1919"/>
<path d="M13.25 4.75012H11.75C11.6837 4.75012 11.6201 4.77646 11.5732 4.82335C11.5263 4.87023 11.5 4.93382 11.5 5.00012V6.50012C11.5 6.56643 11.5263 6.63001 11.5732 6.6769C11.6201 6.72378 11.6837 6.75012 11.75 6.75012H13.25C13.3163 6.75012 13.3799 6.72378 13.4268 6.6769C13.4737 6.63001 13.5 6.56643 13.5 6.50012V5.00012C13.5 4.93382 13.4737 4.87023 13.4268 4.82335C13.3799 4.77646 13.3163 4.75012 13.25 4.75012ZM13 6.25012H12V5.25012H13V6.25012Z" fill="#1A1919"/>
<path d="M10.75 4.75012H9.25C9.1837 4.75012 9.12011 4.77646 9.07322 4.82335C9.02634 4.87023 9 4.93382 9 5.00012V6.50012C9 6.56643 9.02634 6.63001 9.07322 6.6769C9.12011 6.72378 9.1837 6.75012 9.25 6.75012H10.75C10.8163 6.75012 10.8799 6.72378 10.9268 6.6769C10.9737 6.63001 11 6.56643 11 6.50012V5.00012C11 4.93382 10.9737 4.87023 10.9268 4.82335C10.8799 4.77646 10.8163 4.75012 10.75 4.75012ZM10.5 6.25012H9.5V5.25012H10.5V6.25012Z" fill="#1A1919"/>
</svg>
