<svg width="16" height="16" viewBox="0 0 16 16" fill="none" xmlns="http://www.w3.org/2000/svg">
<g clip-path="url(#clip0)">
<path d="M14.7674 10.0512C14.5473 10.0512 14.3689 10.2295 14.3689 10.4496V13.9877C14.3681 14.6477 13.8334 15.1826 13.1734 15.1832H1.99241C1.33243 15.1826 0.797744 14.6477 0.796966 13.9877V3.60368C0.797744 2.94385 1.33243 2.40901 1.99241 2.40823H5.53051C5.75061 2.40823 5.92899 2.22985 5.92899 2.00975C5.92899 1.78981 5.75061 1.61127 5.53051 1.61127H1.99241C0.892539 1.61251 0.00124526 2.50381 0 3.60368V13.9879C0.00124526 15.0878 0.892539 15.9791 1.99241 15.9803H13.1734C14.2733 15.9791 15.1646 15.0878 15.1659 13.9879V10.4496C15.1659 10.2295 14.9875 10.0512 14.7674 10.0512Z" fill="black"/>
<path d="M15.008 0.585896C14.3077 -0.114407 13.1723 -0.114407 12.472 0.585896L5.36284 7.69508C5.31412 7.7438 5.27894 7.8042 5.26058 7.87051L4.3257 11.2456C4.28725 11.384 4.32632 11.5322 4.42781 11.6338C4.52945 11.7353 4.67764 11.7744 4.81602 11.7361L8.19114 10.8011C8.25745 10.7827 8.31784 10.7475 8.36656 10.6988L15.4756 3.58946C16.1748 2.88869 16.1748 1.75426 15.4756 1.05349L15.008 0.585896ZM6.2311 7.95409L12.0494 2.13562L13.9259 4.01207L8.10739 9.83054L6.2311 7.95409ZM5.85628 8.70623L7.35541 10.2055L5.28175 10.7801L5.85628 8.70623ZM14.9121 3.02598L14.4895 3.44859L12.6129 1.57199L13.0357 1.14938C13.4247 0.760388 14.0554 0.760388 14.4444 1.14938L14.9121 1.61697C15.3005 2.00643 15.3005 2.63668 14.9121 3.02598Z" fill="black"/>
</g>
<defs>
<clipPath id="clip0">
<rect width="16" height="16" fill="white"/>
</clipPath>
</defs>
</svg>
