<svg width="16" height="16" viewBox="0 0 16 16" fill="none" xmlns="http://www.w3.org/2000/svg">
<g clip-path="url(#clip0)">
<path d="M2.32867 15.044H1.19496L1.99663 14.2423C2.42888 13.81 2.69881 13.2478 2.77138 12.6379C1.64343 11.8977 0.818622 10.9239 0.377103 9.80704C-0.0641025 8.69105 -0.119547 7.46254 0.216782 6.25429C0.620326 4.8045 1.56682 3.48308 2.88186 2.53339C4.31089 1.50142 6.08986 0.955933 8.0265 0.955933C10.4661 0.955933 12.5225 1.65686 13.9732 2.98289C15.28 4.17752 15.9998 5.78891 15.9998 7.52027C15.9998 8.36142 15.8285 9.17987 15.4907 9.9529C15.1412 10.7528 14.6293 11.4651 13.9694 12.0698C12.5168 13.4011 10.4618 14.1048 8.02647 14.1048C7.12242 14.1048 6.17906 13.9841 5.33681 13.7626C4.53959 14.5804 3.45928 15.044 2.32867 15.044ZM8.0265 1.89513C4.14324 1.89513 1.76045 4.21099 1.12158 6.50615C0.517859 8.67508 1.40782 10.7245 3.50224 11.9884L3.73625 12.1297L3.72905 12.4029C3.71478 12.9437 3.58586 13.4645 3.35509 13.9354C3.91702 13.7453 4.42691 13.4006 4.8262 12.9289L5.02475 12.6943L5.31919 12.7823C6.14546 13.0295 7.10693 13.1656 8.0265 13.1656C12.8594 13.1656 15.0606 10.2392 15.0606 7.52027C15.0606 6.05586 14.4493 4.69064 13.3394 3.67611C12.0649 2.511 10.2276 1.89513 8.0265 1.89513Z" fill="#1A1919"/>
</g>
<defs>
<clipPath id="clip0">
<rect width="16" height="16" fill="white"/>
</clipPath>
</defs>
</svg>
