<svg width="16" height="16" viewBox="0 0 16 16" fill="none" xmlns="http://www.w3.org/2000/svg">
<path d="M15.9945 7.99573L8.70276 0V4.78955H7.85571C5.75745 4.78955 3.78467 5.60669 2.3009 7.09045C0.817139 8.57422 0 10.547 0 12.6454V16L1.39941 14.4667C3.27136 12.4158 5.92859 11.2294 8.70276 11.2024V15.9916L15.9945 7.99573ZM0.937622 13.5896V12.6454C0.937622 10.7975 1.65723 9.06006 2.96387 7.75342C4.27051 6.44678 6.00781 5.72717 7.85571 5.72717H9.64026V2.41956L14.7257 7.99573L9.64026 13.572V10.2644H8.79907C5.8396 10.2644 2.99365 11.4723 0.937622 13.5896Z" fill="#1A1919"/>
</svg>
