<svg width="24" height="24" viewBox="0 0 24 24" fill="none" xmlns="http://www.w3.org/2000/svg">
<g clip-path="url(#clip0)">
<path d="M7.50093 21.755C16.5581 21.755 21.5109 14.2515 21.5109 7.74501C21.5109 7.53187 21.5065 7.31965 21.497 7.10853C22.4583 6.41346 23.294 5.54609 23.9532 4.55878C23.071 4.95099 22.1214 5.21485 21.1255 5.33405C22.1421 4.72431 22.9227 3.76007 23.2907 2.61054C22.3393 3.1745 21.2857 3.58429 20.164 3.80567C19.2655 2.84857 17.9861 2.25 16.5696 2.25C13.8505 2.25 11.6453 4.45514 11.6453 7.17335C11.6453 7.55989 11.6886 7.93562 11.773 8.29615C7.68056 8.09016 4.05158 6.13093 1.62323 3.15143C1.20044 3.87909 0.956545 4.72449 0.956545 5.62647C0.956545 7.33467 1.82593 8.84291 3.14777 9.72511C2.33991 9.70021 1.58112 9.47847 0.917727 9.10933C0.916994 9.13002 0.916994 9.15016 0.916994 9.17213C0.916994 11.5569 2.6142 13.548 4.8675 13.9992C4.45368 14.1118 4.01826 14.1724 3.5691 14.1724C3.25233 14.1724 2.94361 14.1413 2.6435 14.0836C3.27045 16.0401 5.08833 17.4637 7.24348 17.5036C5.55818 18.8246 3.43507 19.6114 1.12775 19.6114C0.730775 19.6114 0.338563 19.5887 -0.046875 19.5432C2.13227 20.94 4.7201 21.7552 7.50111 21.7552" fill="#1DA1F2"/>
</g>
<defs>
<clipPath id="clip0">
<rect width="24" height="24" fill="white"/>
</clipPath>
</defs>
</svg>
